<mxfile host="app.diagrams.net" modified="2022-01-05T05:21:07.260Z" agent="5.0 (Windows NT 10.0; Win64; x64) AppleWebKit/537.36 (KHTML, like Gecko) Chrome/96.0.4664.110 Safari/537.36" etag="8Db4WZK2aCIOiB5f3EGp" version="16.2.1" type="github">
  <diagram id="2vaLObiON2mgnCBko8N6" name="Page-1">
    <mxGraphModel dx="2595" dy="1688" grid="1" gridSize="10" guides="1" tooltips="1" connect="1" arrows="1" fold="1" page="1" pageScale="1" pageWidth="1270" pageHeight="800" background="#FFFFFF" math="0" shadow="0">
      <root>
        <mxCell id="0" />
        <mxCell id="1" parent="0" />
        <mxCell id="BbGp4zKNzdhrE7X_-JEC-24" style="edgeStyle=orthogonalEdgeStyle;rounded=0;orthogonalLoop=1;jettySize=auto;html=1;fontFamily=Comic Sans MS;fontSize=25;fontColor=#000000;" parent="1" edge="1">
          <mxGeometry relative="1" as="geometry">
            <mxPoint x="200" y="430" as="targetPoint" />
            <mxPoint x="430" y="430" as="sourcePoint" />
          </mxGeometry>
        </mxCell>
        <mxCell id="BbGp4zKNzdhrE7X_-JEC-25" style="edgeStyle=orthogonalEdgeStyle;rounded=0;orthogonalLoop=1;jettySize=auto;html=1;exitX=1;exitY=0;exitDx=0;exitDy=51.333279079861086;exitPerimeter=0;fontFamily=Comic Sans MS;fontSize=25;fontColor=#000000;" parent="1" source="BbGp4zKNzdhrE7X_-JEC-5" target="BbGp4zKNzdhrE7X_-JEC-15" edge="1">
          <mxGeometry relative="1" as="geometry">
            <Array as="points">
              <mxPoint x="745" y="255" />
              <mxPoint x="745" y="135" />
            </Array>
          </mxGeometry>
        </mxCell>
        <mxCell id="BbGp4zKNzdhrE7X_-JEC-27" style="edgeStyle=orthogonalEdgeStyle;rounded=0;orthogonalLoop=1;jettySize=auto;html=1;fontFamily=Comic Sans MS;fontSize=25;fontColor=#000000;entryX=0.374;entryY=1.001;entryDx=0;entryDy=0;entryPerimeter=0;" parent="1" target="BbGp4zKNzdhrE7X_-JEC-18" edge="1">
          <mxGeometry relative="1" as="geometry">
            <mxPoint x="820" y="390" as="targetPoint" />
            <mxPoint x="660" y="390" as="sourcePoint" />
            <Array as="points">
              <mxPoint x="660" y="390" />
            </Array>
          </mxGeometry>
        </mxCell>
        <mxCell id="BbGp4zKNzdhrE7X_-JEC-30" style="edgeStyle=orthogonalEdgeStyle;rounded=0;orthogonalLoop=1;jettySize=auto;html=1;exitX=1;exitY=1;exitDx=0;exitDy=-51.333279079861086;exitPerimeter=0;entryX=-0.023;entryY=0.436;entryDx=0;entryDy=0;entryPerimeter=0;fontFamily=Comic Sans MS;fontSize=25;fontColor=#000000;" parent="1" source="BbGp4zKNzdhrE7X_-JEC-5" target="BbGp4zKNzdhrE7X_-JEC-17" edge="1">
          <mxGeometry relative="1" as="geometry" />
        </mxCell>
        <mxCell id="BbGp4zKNzdhrE7X_-JEC-5" value="&lt;h1&gt;&lt;font face=&quot;Comic Sans MS&quot;&gt;GCP Server&lt;/font&gt;&lt;/h1&gt;" style="shape=cylinder3;whiteSpace=wrap;html=1;boundedLbl=1;backgroundOutline=1;size=51.333279079861086;gradientDirection=north;fillColor=#b1ddf0;strokeColor=#10739e;gradientColor=#ffffff;verticalAlign=bottom;" parent="1" vertex="1">
          <mxGeometry x="440" y="204" width="220" height="420" as="geometry" />
        </mxCell>
        <mxCell id="BbGp4zKNzdhrE7X_-JEC-22" style="edgeStyle=orthogonalEdgeStyle;rounded=0;orthogonalLoop=1;jettySize=auto;html=1;exitX=1.031;exitY=0.376;exitDx=0;exitDy=0;exitPerimeter=0;fontFamily=Comic Sans MS;fontSize=25;fontColor=#000000;" parent="1" source="BbGp4zKNzdhrE7X_-JEC-11" edge="1">
          <mxGeometry relative="1" as="geometry">
            <mxPoint x="430" y="396" as="targetPoint" />
          </mxGeometry>
        </mxCell>
        <mxCell id="BbGp4zKNzdhrE7X_-JEC-11" value="" style="fillColor=#28A8E0;verticalLabelPosition=bottom;sketch=0;html=1;strokeColor=#ffffff;verticalAlign=top;align=center;points=[[0.145,0.145,0],[0.5,0,0],[0.855,0.145,0],[1,0.5,0],[0.855,0.855,0],[0.5,1,0],[0.145,0.855,0],[0,0.5,0]];pointerEvents=1;shape=mxgraph.cisco_safe.compositeIcon;bgIcon=ellipse;resIcon=mxgraph.cisco_safe.capability.user;labelBackgroundColor=#000000;fontFamily=Comic Sans MS;fontSize=25;fontColor=#009999;" parent="1" vertex="1">
          <mxGeometry x="50" y="341.25" width="140" height="145.5" as="geometry" />
        </mxCell>
        <mxCell id="BbGp4zKNzdhrE7X_-JEC-26" style="edgeStyle=orthogonalEdgeStyle;rounded=0;orthogonalLoop=1;jettySize=auto;html=1;exitX=0.604;exitY=1.007;exitDx=0;exitDy=0;exitPerimeter=0;fontFamily=Comic Sans MS;fontSize=25;fontColor=#000000;" parent="1" source="BbGp4zKNzdhrE7X_-JEC-15" edge="1">
          <mxGeometry relative="1" as="geometry">
            <mxPoint x="660" y="270" as="targetPoint" />
            <Array as="points">
              <mxPoint x="760" y="155" />
              <mxPoint x="760" y="270" />
            </Array>
          </mxGeometry>
        </mxCell>
        <mxCell id="BbGp4zKNzdhrE7X_-JEC-15" value="&lt;font color=&quot;#000000&quot;&gt;NAVER SERACH API&lt;/font&gt;" style="verticalAlign=middle;align=center;spacingTop=8;spacingLeft=2;spacingRight=12;shape=cube;size=10;direction=south;fontStyle=2;html=1;labelBackgroundColor=none;fontFamily=Comic Sans MS;fontSize=25;fontColor=#5CD9FF;fillColor=default;gradientColor=#ffffff;gradientDirection=north;horizontal=1;" parent="1" vertex="1">
          <mxGeometry x="950" y="40" width="290" height="190" as="geometry" />
        </mxCell>
        <mxCell id="BbGp4zKNzdhrE7X_-JEC-17" value="" style="html=1;verticalLabelPosition=bottom;align=center;labelBackgroundColor=#ffffff;verticalAlign=top;strokeWidth=2;strokeColor=#82b366;shadow=0;dashed=0;shape=mxgraph.ios7.icons.message;fontFamily=Comic Sans MS;fontSize=25;fillColor=#d5e8d4;gradientDirection=north;gradientColor=#97d077;" parent="1" vertex="1">
          <mxGeometry x="950" y="570" width="290" height="210" as="geometry" />
        </mxCell>
        <mxCell id="BbGp4zKNzdhrE7X_-JEC-29" style="edgeStyle=orthogonalEdgeStyle;rounded=0;orthogonalLoop=1;jettySize=auto;html=1;exitX=0;exitY=0;exitDx=100;exitDy=290;exitPerimeter=0;fontFamily=Comic Sans MS;fontSize=25;fontColor=#000000;" parent="1" source="BbGp4zKNzdhrE7X_-JEC-18" edge="1">
          <mxGeometry relative="1" as="geometry">
            <mxPoint x="660" y="420" as="targetPoint" />
          </mxGeometry>
        </mxCell>
        <mxCell id="BbGp4zKNzdhrE7X_-JEC-18" value="CLOVA SUMMARY API" style="verticalAlign=middle;align=left;spacingTop=8;spacingLeft=2;spacingRight=12;shape=cube;size=10;direction=south;fontStyle=0;labelBackgroundColor=none;fontFamily=Comic Sans MS;fontSize=25;fontColor=#000000;fillColor=default;gradientColor=#ffffff;gradientDirection=north;" parent="1" vertex="1">
          <mxGeometry x="950" y="319" width="290" height="190" as="geometry" />
        </mxCell>
        <mxCell id="BbGp4zKNzdhrE7X_-JEC-31" value="1.Request (Keyword)" style="text;html=1;align=center;verticalAlign=middle;resizable=0;points=[];autosize=1;strokeColor=none;fillColor=none;fontSize=25;fontFamily=Comic Sans MS;fontColor=#000000;" parent="1" vertex="1">
          <mxGeometry x="190" y="350" width="250" height="40" as="geometry" />
        </mxCell>
        <mxCell id="BbGp4zKNzdhrE7X_-JEC-32" value="2.Request (Keyword)" style="text;html=1;align=center;verticalAlign=middle;resizable=0;points=[];autosize=1;strokeColor=none;fillColor=none;fontSize=25;fontFamily=Comic Sans MS;fontColor=#000000;rotation=0;" parent="1" vertex="1">
          <mxGeometry x="685" y="90" width="250" height="40" as="geometry" />
        </mxCell>
        <mxCell id="BbGp4zKNzdhrE7X_-JEC-34" value="3.Response" style="text;html=1;align=center;verticalAlign=middle;resizable=0;points=[];autosize=1;strokeColor=none;fillColor=none;fontSize=25;fontFamily=Comic Sans MS;fontColor=#000000;" parent="1" vertex="1">
          <mxGeometry x="780" y="160" width="140" height="40" as="geometry" />
        </mxCell>
        <mxCell id="BbGp4zKNzdhrE7X_-JEC-35" value="4.Request (기사 본문)" style="text;html=1;align=center;verticalAlign=middle;resizable=0;points=[];autosize=1;strokeColor=none;fillColor=none;fontSize=25;fontFamily=Comic Sans MS;fontColor=#000000;" parent="1" vertex="1">
          <mxGeometry x="675" y="341.25" width="260" height="40" as="geometry" />
        </mxCell>
        <mxCell id="BbGp4zKNzdhrE7X_-JEC-36" value="5. Response (본문 요약)" style="text;html=1;align=center;verticalAlign=middle;resizable=0;points=[];autosize=1;strokeColor=none;fillColor=none;fontSize=25;fontFamily=Comic Sans MS;fontColor=#000000;" parent="1" vertex="1">
          <mxGeometry x="660" y="420" width="290" height="40" as="geometry" />
        </mxCell>
        <mxCell id="BbGp4zKNzdhrE7X_-JEC-37" value="JANDI" style="text;html=1;align=center;verticalAlign=middle;resizable=0;points=[];autosize=1;strokeColor=none;fillColor=none;fontSize=25;fontFamily=Comic Sans MS;fontColor=#000000;" parent="1" vertex="1">
          <mxGeometry x="960" y="584" width="100" height="40" as="geometry" />
        </mxCell>
        <mxCell id="BbGp4zKNzdhrE7X_-JEC-38" value="6. Webhook Trigger" style="text;html=1;align=center;verticalAlign=middle;resizable=0;points=[];autosize=1;strokeColor=none;fillColor=none;fontSize=25;fontFamily=Comic Sans MS;fontColor=#000000;" parent="1" vertex="1">
          <mxGeometry x="680" y="670" width="250" height="40" as="geometry" />
        </mxCell>
        <mxCell id="BbGp4zKNzdhrE7X_-JEC-39" value="7.Response&amp;nbsp;" style="text;html=1;align=center;verticalAlign=middle;resizable=0;points=[];autosize=1;strokeColor=none;fillColor=none;fontSize=25;fontFamily=Comic Sans MS;fontColor=#000000;" parent="1" vertex="1">
          <mxGeometry x="240" y="440" width="150" height="40" as="geometry" />
        </mxCell>
        <mxCell id="BbGp4zKNzdhrE7X_-JEC-40" value="(Keyword에 해당하는&lt;br&gt;&amp;nbsp;기사의 요약)" style="text;html=1;align=center;verticalAlign=middle;resizable=0;points=[];autosize=1;strokeColor=none;fillColor=none;fontSize=25;fontFamily=Comic Sans MS;fontColor=#000000;" parent="1" vertex="1">
          <mxGeometry x="185" y="480" width="260" height="70" as="geometry" />
        </mxCell>
        <mxCell id="BbGp4zKNzdhrE7X_-JEC-41" value="(제목, 링크, 요약)" style="text;html=1;align=center;verticalAlign=middle;resizable=0;points=[];autosize=1;strokeColor=none;fillColor=none;fontSize=25;fontFamily=Comic Sans MS;fontColor=#000000;" parent="1" vertex="1">
          <mxGeometry x="750" y="190" width="210" height="40" as="geometry" />
        </mxCell>
      </root>
    </mxGraphModel>
  </diagram>
</mxfile>
